<?xml version="1.0" encoding="utf-8"?>
<!-- Generator: Adobe Illustrator 19.0.1, SVG Export Plug-In . SVG Version: 6.00 Build 0)  -->
<svg version="1.1" id="Layer_1" xmlns="http://www.w3.org/2000/svg" xmlns:xlink="http://www.w3.org/1999/xlink" x="0px" y="0px"
	 viewBox="0 0 560 560" enable-background="new 0 0 560 560" xml:space="preserve">
<g id="XMLID_36_">
	<path id="XMLID_37_" d="M280.5,21.5c-142.7,0-258.3,115.7-258.3,258.3c0,110.7,69.7,205.2,167.6,241.9
		c6.7-15.1,21.7-25.6,39.2-25.6c23.3,0,42.3,18.6,42.9,41.8c2.9,0.1,5.7,0.2,8.7,0.2c142.7,0,258.3-115.7,258.3-258.3
		S423.2,21.5,280.5,21.5z M264,372.5v77.4h-70.8c0,0,0.1-133.4,0-144.7l4,0.9c9.7,1.8,42.7,1.9,66.7-0.6
		c33.5-3.4,73.7-21.1,73.4-63.5c-0.2-35-35.9-57.3-78.7-60.2c-20.5-1.4-45.7,0.6-68.1,4.3v-72.3c20.4-4.8,47.7-6.6,71.3-5.6
		c103.4,4.3,156.1,56.4,156.1,133.2C417.9,317.9,361.9,373.7,264,372.5z"/>
</g>
</svg>
