<?xml version="1.0" encoding="utf-8"?>
<!-- Generator: Adobe Illustrator 19.0.1, SVG Export Plug-In . SVG Version: 6.00 Build 0)  -->
<svg version="1.1" id="Layer_1" xmlns="http://www.w3.org/2000/svg" xmlns:xlink="http://www.w3.org/1999/xlink" x="0px" y="0px"
	 viewBox="0 0 560 560" enable-background="new 0 0 560 560" xml:space="preserve">
<path id="XMLID_33_" d="M380.8,219.5c0.6,3.6,4,4.1,6.8,3.5c6.1-1.3,12-3.4,18.1-4.8c5.1-1.1,11.1-1.5,12.9,4.9
	c1.6,5.9-4,7.8-8.1,9.6c-13.1,5.8-26.6,10.2-41.6,8.7c-17.3,2.8-33.2-5-48.8-11.1c-21.8-8.5-24.3-28.5-6-44
	c19-16.1,40.7-27.8,63.3-37.5c3-1.3,6.8-3.9,9.4-0.5c3.4,4.4-1,7.4-3.2,10.5c-2.5,3.6-8.8,6.2-5.8,11.5c3.4,5.9,9.3,1.9,13.9,0.7
	c16.7-4.3,33.4-7.1,50,0.4c3.9,1.8,9.7,3,8.9,9.1c-0.8,6.2-6.5,5.6-10.9,5.7c-22.7,0.5-37,19.5-56.2,27.7
	C382,214.5,380.5,217.7,380.8,219.5z M297.5,512c-5.3-10.4-12.7-19.5-20.5-28.3c-8.8-9.8-2.6-19.9,3.5-26.9c6.7-7.7,12.2,1.2,16.5,6
	c11.6,12.8,22.3,24.7,40.8,28.8c24.6,5.5,48.1-0.1,63.9-21.2c3.3-4.4,6.3-9.1,2.6-14.3c-3.5-5-9.3-4.9-14-2.8
	c-7.8,3.4-15.1,8.1-22.7,12c-10.2,5.1-20.6,6.7-30.8-0.2c-3.7-2.5-8.8-4.5-8.3-10.2c0.5-5.9,5.9-6.4,10.1-8c8-3,17.4-2.8,24.5-10.3
	c-6.7-4.1-11,0.1-15.6,1.7c-10,3.6-20.1,3.6-30.2,1.6c-5.9-1.2-10.9-5.1-10-12.2c0.9-6.8,6.5-7.9,11.8-6.8c6.6,1.3,12-1.6,18-3.1
	c20.1-5,37.6-15.7,55.9-24.9c4.5-2.3,9.7-6.6,14.1-2c13.5,14,23.7,3,34.2-4.4c4.7-3.3,9-9.4,14.7-4.4c16.2,14.3,20.5,5,22.6-11.3
	c0.8-6.4,4.3-12.4,5.2-18.7c1.9-14.6-0.4-26.5-17-31.4c-14.7-4.3-28.6-11.5-43-16.8c-5.9-2.2-11.9-7.1-19.9-2.2
	c5.3,9.7,15,12.8,22.4,18.6c12.2,9.6,11,22.2,9.3,35.3c-1.5,11.1-11.2,10.4-18.3,12.7c-13.6,4.4-26.6,9.7-38.7,17.9
	c-13.6,9.1-28.6,14.2-48.7,11.6c9.8-10.2,22.8-12.1,25.1-23.2c2.9-14.1,8.1-25.5,19.9-33.5c2.8-1.9,5-5.7,2.6-9.2
	c-2.3-3.4-6.2-1.9-9.5-1.1c-13.1,3.3-24.1,10.7-33.2,20.6c-12.2,13.3-24.7,21.3-43.5,12.7c-8.2-3.7-20.7-3.6-24.7,8.3
	c-6.6,19.4,0.3,27.7,20.6,28c1.4,0,2.8,1.3,6.6,3.2c-8.6,7.4-17.7,9.7-26.3,13.2c-3.9,1.6-7.4,1.7-10.5-2.5
	c-9.2-12.5-21.3-23.9-11.8-42.2c1.5-2.9,2.8-7.3-1.1-9.4c-3.8-2-6.5,1.5-8.4,4.2c-12.6,17.5-22.7,36.2-20.6,61.1
	c-19.1-8.8-34.2-19.2-44.1-36.9c-13.5-24-19.1-50.5-24.5-77.2c-0.9-4.6-0.8-9.5,1.9-13.7c7.2-11,49.1-24.3,63.6-19.6
	c-9.7,12-27.5,11.7-35.3,26.1c7.2,6.7,15.5,6.1,24,5.1c30-3.5,46.4-27.3,63.3-48.7c9.2-11.7,3.9-26.2-8.2-35.1
	c-7.8-5.7-16.3-8-25.6-7.8c-25.9,0.4-52-3.5-77.7,3.7c-8.5,2.3-18.3,2.7-19.5-10.1c-1.4-14.6-8.2-26.9-13.2-40.1
	c-7-18.5-10.2-37.7-6.7-57.5c5.4-30.8,25.3-45.6,54.9-40c16.2,3,31.6,1.6,46.8-4c27.5-9.9,52.6-27.3,83.2-28.3
	c2.5-0.1,18.1-8.9,31.7-17.4c-15.8-3-32.1-4.7-48.9-4.7c-142.6,0-258.3,115.6-258.3,258.3s115.6,258.3,258.3,258.3
	c13.1,0,26.1-1,38.7-2.9C314.3,531.7,303.8,524.3,297.5,512z"/>
</svg>
