<?xml version="1.0" encoding="utf-8"?>
<!-- Generator: Adobe Illustrator 19.0.1, SVG Export Plug-In . SVG Version: 6.00 Build 0)  -->
<svg version="1.1" id="Layer_1" xmlns="http://www.w3.org/2000/svg" xmlns:xlink="http://www.w3.org/1999/xlink" x="0px" y="0px"
	 viewBox="0 0 756.8 111.8" enable-background="new 0 0 756.8 111.8" xml:space="preserve">
<g id="XMLID_6320_" opacity="0.5">
	<g id="XMLID_6341_">
		<circle id="XMLID_3941_" fill="#8C8C8C" cx="8.6" cy="95.3" r="8.6"/>
		<path id="XMLID_3940_" fill="#8C8C8C" d="M16.2,61.6v16.3H0.5c0,0,0-26.5,0-28.8l0.9-1c1.9,0.4,9.4,0.7,14.1,0.2
			c6.7-0.7,14.9-3.9,14.8-12.4c0-7-7.3-11.2-15.9-11.9c-5.2-0.4-9.3,0.2-13.3,0.7V10.1c4-0.7,9.2-1,13.9-0.8
			c20.6,0.8,32.1,11.1,32.1,26.4C47.2,51,36.2,61.8,16.2,61.6z"/>
		<path id="XMLID_6353_" fill="#8C8C8C" d="M52.2,33.9h11.6l1.2,4.7c3.6-5.6,8.4-6.1,12.9-6.1c2.9,0,6,1.1,7.8,2l-4.4,12.3
			c-0.3-0.1-0.5-0.3-0.8-0.4c-1.5-0.6-2.9-1-4.6-1c-4.5,0-9.7,4.7-9.7,14v18.5h-14V33.9z"/>
		<path id="XMLID_6350_" fill="#8C8C8C" d="M84.9,55c0-13.3,8.5-22.7,19.5-22.7c6.6,0,11.3,2.4,13.7,6.3l1.8-4.7h11.1v44h-14v-6.4
			c-2,4-6.6,6.5-13.2,6.5C93.4,78,84.9,68.5,84.9,55z M117.8,55c0-6.5-3.4-10.5-9.4-10.5c-5.9,0-9.2,4-9.2,10.5
			c0,6.7,3.3,10.8,9.2,10.8C114.4,65.8,117.8,61.7,117.8,55z"/>
		<path id="XMLID_6348_" fill="#8C8C8C" d="M139.2,33.9h10.5l1.5,4.7c3.7-4.1,8.2-6.1,13.4-6.1c5.7,0,9.2,0.7,11.9,5.9
			c3.6-4.5,8.8-6,15.3-6c11,0,17.4,7.3,17.4,19.3v26.3h-14v-25c0-5.1-1.3-7.9-6.6-7.9c-5.4,0-7.4,2.7-7.4,8.6v24.3h-13v-25
			c0-5.1-2.2-7.9-7.5-7.9c-5.4,0-8.5,2.7-8.5,8.6v24.3h-13V33.9z"/>
		<path id="XMLID_6345_" fill="#8C8C8C" d="M214.3,55.2c0-13.4,10.6-22.9,24.2-22.9c13.6,0,24.1,9.6,24.1,22.9
			c0,13.3-10.5,22.7-24.1,22.7C224.9,78,214.3,68.5,214.3,55.2z M248.3,55.2c0-6.6-3.7-11-9.9-11c-6.2,0-10,4.4-10,11
			c0,6.5,3.8,11,10,11C244.6,66.3,248.3,61.7,248.3,55.2z"/>
		<path id="XMLID_6342_" fill="#8C8C8C" d="M266.7,55c0-13.5,9.1-22.7,19.7-22.7c7.6,0,11.8,2,13.8,5.2V7.9h13v70h-11.3l-1.5-6.8
			c-2.5,4.6-7.1,7.1-13.8,7.1C275.8,78.2,266.7,68.5,266.7,55z M300.4,55c0-6.5-3.9-10.5-9.9-10.5c-5.9,0-9.6,4-9.6,10.5
			c0,6.9,3.7,10.8,9.6,10.8C296.5,65.8,300.4,61.9,300.4,55z"/>
	</g>
	<g id="XMLID_6321_">
		<polygon id="XMLID_3931_" fill="#8C8C8C" points="374.8,44.4 347.5,10.9 345.1,10.9 342,77.9 356.3,77.9 358.1,46.1 374.2,64.9 
			375.4,64.9 390.9,46.1 393.3,77.9 407.6,77.9 402.8,10.9 400.3,10.9 		"/>
		<path id="XMLID_6338_" fill="#8C8C8C" d="M570.2,33.9h11l1.2,5.2c3.6-5.6,8.4-5.9,12.9-5.9c2.9,0,6,1.2,7.8,2.1l-4.4,12.3
			c-1.7-0.8-3.6-1.3-5.6-1.3c-4.5,0-9.9,4.7-9.9,14.1v17.5h-13V33.9z"/>
		<path id="XMLID_6335_" fill="#8C8C8C" d="M601.1,56.1c0-13.3,8.5-22.7,19.5-22.7c6.6,0,11.3,1.8,13.7,5.8l1.8-5.2h11v44h-13v-5.4
			c-1,4-7,6.5-13.7,6.5C610,79,601.1,69.5,601.1,56.1z M634,56.1c0-6.5-3.4-10.5-9.4-10.5c-5.9,0-9.2,4-9.2,10.5
			c0,6.7,3.3,10.8,9.2,10.8C630.6,66.9,634,62.8,634,56.1z"/>
		<path id="XMLID_6332_" fill="#8C8C8C" d="M516.6,56.1c0-13.3,8.5-22.7,19.5-22.7c6.6,0,11.3,1.8,13.7,5.8l1.8-5.2h12.4v44h-16
			v-5.4c0,4-6.2,6.5-12.9,6.5C524.8,79,516.6,69.5,516.6,56.1z M549.5,56.1c0-6.5-3.4-10.5-9.4-10.5c-5.9,0-9.2,4-9.2,10.5
			c0,6.7,3.3,10.8,9.2,10.8C546.1,66.9,549.5,62.8,549.5,56.1z"/>
		<path id="XMLID_6329_" fill="#8C8C8C" d="M413.3,56.1c0-13.3,8.5-22.7,19.5-22.7c6.6,0,11.3,1.8,13.7,5.8l1.8-5.2h12.7v44h-16
			v-5.4c0,4-6.4,6.5-13,6.5C421.6,79,413.3,69.5,413.3,56.1z M446.2,56.1c0-6.5-3.4-10.5-9.4-10.5c-5.9,0-9.2,4-9.2,10.5
			c0,6.7,3.3,10.8,9.2,10.8C442.8,66.9,446.2,62.8,446.2,56.1z"/>
		<path id="XMLID_6326_" fill="#8C8C8C" d="M704.5,56.1c0-13.3,8.5-22.7,19.5-22.7c6.6,0,11.3,1.8,13.7,5.8l1.8-5.2h10.5v44h-12
			v-5.4c-3,4-7.2,6.5-13.9,6.5C713.7,79,704.5,69.5,704.5,56.1z M737.5,56.1c0-6.5-3.4-10.5-9.4-10.5c-5.9,0-9.2,4-9.2,10.5
			c0,6.7,3.3,10.8,9.2,10.8C734.1,66.9,737.5,62.8,737.5,56.1z"/>
		<path id="XMLID_6324_" fill="#8C8C8C" d="M468.2,10.9h12v28.4c4-4.3,8-6,14.1-6c9.6,0,16.9,7,16.9,19.4v25.1h-13V53.7
			c0-4.9-3.3-7.7-8.2-7.7c-5.6,0-9.8,3.1-9.8,8.6v23.3h-12V10.9z"/>
		<path id="XMLID_6322_" fill="#8C8C8C" d="M654.2,33.9H665l1.5,5.6c3.4-4,6.9-6.2,14.7-6.2c9.6,0,16,7.1,16,19.5v25.1h-12V53.7
			c0-4.9-3.3-7.7-8.2-7.7c-5.6,0-9.8,3.1-9.8,8.6v23.3h-13V33.9z"/>
	</g>
</g>
</svg>
